# MagicaVoxel @ Ephtracy

# group
o 

# material
mtllib Coin.mtl
usemtl palette

# normals
vn -1 0 0
vn 1 0 0
vn 0 0 1
vn 0 0 -1
vn 0 -1 0
vn 0 1 0

# texcoords
vt 0.0136719 0.5
vt 0.0175781 0.5
vt 0.0214844 0.5
vt 0.0449219 0.5

# verts
v -0.9 0.1 0.4
v -0.9 0.1 0.3
v -0.9 1.5 0.4
v -0.9 1.5 0.3
v -0.8 0 0.4
v -0.8 0 0.3
v -0.8 0.1 0.4
v -0.8 0.1 0.3
v -0.8 0.2 0.5
v -0.8 0.2 0.4
v -0.8 0.2 0.3
v -0.8 0.2 0.2
v -0.8 1.4 0.5
v -0.8 1.4 0.4
v -0.8 1.4 0.3
v -0.8 1.4 0.2
v -0.8 1.5 0.4
v -0.8 1.5 0.3
v -0.8 1.6 0.4
v -0.8 1.6 0.3
v -0.7 0.1 0.5
v -0.7 0.1 0.4
v -0.7 0.1 0.3
v -0.7 0.1 0.2
v -0.7 0.2 0.5
v -0.7 0.2 0.4
v -0.7 0.2 0.3
v -0.7 0.2 0.2
v -0.7 1.4 0.5
v -0.7 1.4 0.4
v -0.7 1.4 0.3
v -0.7 1.4 0.2
v -0.7 1.5 0.5
v -0.7 1.5 0.4
v -0.7 1.5 0.3
v -0.7 1.5 0.2
v 0.5 0.1 0.5
v 0.5 0.1 0.4
v 0.5 0.1 0.3
v 0.5 0.1 0.2
v 0.5 0.2 0.5
v 0.5 0.2 0.4
v 0.5 0.2 0.3
v 0.5 0.2 0.2
v 0.5 1.4 0.5
v 0.5 1.4 0.4
v 0.5 1.4 0.3
v 0.5 1.4 0.2
v 0.5 1.5 0.5
v 0.5 1.5 0.4
v 0.5 1.5 0.3
v 0.5 1.5 0.2
v 0.6 0 0.4
v 0.6 0 0.3
v 0.6 0.1 0.4
v 0.6 0.1 0.3
v 0.6 0.2 0.5
v 0.6 0.2 0.4
v 0.6 0.2 0.3
v 0.6 0.2 0.2
v 0.6 1.4 0.5
v 0.6 1.4 0.4
v 0.6 1.4 0.3
v 0.6 1.4 0.2
v 0.6 1.5 0.4
v 0.6 1.5 0.3
v 0.6 1.6 0.4
v 0.6 1.6 0.3
v 0.7 0.1 0.4
v 0.7 0.1 0.3
v 0.7 1.5 0.4
v 0.7 1.5 0.3
v -0.8 0.2 0.5
v -0.8 1.4 0.5
v -0.7 0.1 0.5
v -0.7 0.2 0.5
v -0.7 1.4 0.5
v -0.7 1.5 0.5
v -0.4 0.3 0.5
v -0.4 1.3 0.5
v -0.3 0.3 0.5
v -0.3 0.8 0.5
v -0.3 0.9 0.5
v -0.3 1.2 0.5
v 0.1 0.8 0.5
v 0.1 0.9 0.5
v 0.1 1.2 0.5
v 0.1 1.3 0.5
v 0.2 0.9 0.5
v 0.2 1.2 0.5
v 0.5 0.1 0.5
v 0.5 0.2 0.5
v 0.5 1.4 0.5
v 0.5 1.5 0.5
v 0.6 0.2 0.5
v 0.6 1.4 0.5
v -0.9 0.1 0.4
v -0.9 1.5 0.4
v -0.8 0 0.4
v -0.8 0.1 0.4
v -0.8 0.2 0.4
v -0.8 1.4 0.4
v -0.8 1.5 0.4
v -0.8 1.6 0.4
v -0.7 0.1 0.4
v -0.7 0.2 0.4
v -0.7 1.4 0.4
v -0.7 1.5 0.4
v 0.5 0.1 0.4
v 0.5 0.2 0.4
v 0.5 1.4 0.4
v 0.5 1.5 0.4
v 0.6 0 0.4
v 0.6 0.1 0.4
v 0.6 0.2 0.4
v 0.6 1.4 0.4
v 0.6 1.5 0.4
v 0.6 1.6 0.4
v 0.7 0.1 0.4
v 0.7 1.5 0.4
v -0.9 0.1 0.3
v -0.9 1.5 0.3
v -0.8 0 0.3
v -0.8 0.1 0.3
v -0.8 0.2 0.3
v -0.8 1.4 0.3
v -0.8 1.5 0.3
v -0.8 1.6 0.3
v -0.7 0.1 0.3
v -0.7 0.2 0.3
v -0.7 1.4 0.3
v -0.7 1.5 0.3
v 0.5 0.1 0.3
v 0.5 0.2 0.3
v 0.5 1.4 0.3
v 0.5 1.5 0.3
v 0.6 0 0.3
v 0.6 0.1 0.3
v 0.6 0.2 0.3
v 0.6 1.4 0.3
v 0.6 1.5 0.3
v 0.6 1.6 0.3
v 0.7 0.1 0.3
v 0.7 1.5 0.3
v -0.8 0.2 0.2
v -0.8 1.4 0.2
v -0.7 0.1 0.2
v -0.7 0.2 0.2
v -0.7 1.4 0.2
v -0.7 1.5 0.2
v -0.4 0.3 0.2
v -0.4 1.3 0.2
v -0.3 0.3 0.2
v -0.3 0.8 0.2
v -0.3 0.9 0.2
v -0.3 1.2 0.2
v 0.1 0.8 0.2
v 0.1 0.9 0.2
v 0.1 1.2 0.2
v 0.1 1.3 0.2
v 0.2 0.9 0.2
v 0.2 1.2 0.2
v 0.5 0.1 0.2
v 0.5 0.2 0.2
v 0.5 1.4 0.2
v 0.5 1.5 0.2
v 0.6 0.2 0.2
v 0.6 1.4 0.2
v -0.8 0 0.4
v 0.6 0 0.4
v -0.8 0 0.3
v 0.6 0 0.3
v -0.7 0.1 0.5
v 0.5 0.1 0.5
v -0.9 0.1 0.4
v -0.8 0.1 0.4
v -0.7 0.1 0.4
v 0.5 0.1 0.4
v 0.6 0.1 0.4
v 0.7 0.1 0.4
v -0.9 0.1 0.3
v -0.8 0.1 0.3
v -0.7 0.1 0.3
v 0.5 0.1 0.3
v 0.6 0.1 0.3
v 0.7 0.1 0.3
v -0.7 0.1 0.2
v 0.5 0.1 0.2
v -0.8 0.2 0.5
v -0.7 0.2 0.5
v 0.5 0.2 0.5
v 0.6 0.2 0.5
v -0.8 0.2 0.4
v -0.7 0.2 0.4
v 0.5 0.2 0.4
v 0.6 0.2 0.4
v -0.8 0.2 0.3
v -0.7 0.2 0.3
v 0.5 0.2 0.3
v 0.6 0.2 0.3
v -0.8 0.2 0.2
v -0.7 0.2 0.2
v 0.5 0.2 0.2
v 0.6 0.2 0.2
v -0.8 1.4 0.5
v -0.7 1.4 0.5
v 0.5 1.4 0.5
v 0.6 1.4 0.5
v -0.8 1.4 0.4
v -0.7 1.4 0.4
v 0.5 1.4 0.4
v 0.6 1.4 0.4
v -0.8 1.4 0.3
v -0.7 1.4 0.3
v 0.5 1.4 0.3
v 0.6 1.4 0.3
v -0.8 1.4 0.2
v -0.7 1.4 0.2
v 0.5 1.4 0.2
v 0.6 1.4 0.2
v -0.7 1.5 0.5
v 0.5 1.5 0.5
v -0.9 1.5 0.4
v -0.8 1.5 0.4
v -0.7 1.5 0.4
v 0.5 1.5 0.4
v 0.6 1.5 0.4
v 0.7 1.5 0.4
v -0.9 1.5 0.3
v -0.8 1.5 0.3
v -0.7 1.5 0.3
v 0.5 1.5 0.3
v 0.6 1.5 0.3
v 0.7 1.5 0.3
v -0.7 1.5 0.2
v 0.5 1.5 0.2
v -0.8 1.6 0.4
v 0.6 1.6 0.4
v -0.8 1.6 0.3
v 0.6 1.6 0.3

# faces
f 3/1/1 2/1/1 1/1/1
f 4/1/1 2/1/1 3/1/1
f 7/1/1 6/1/1 5/1/1
f 8/1/1 6/1/1 7/1/1
f 13/2/1 10/2/1 9/2/1
f 14/2/1 10/2/1 13/2/1
f 15/2/1 12/2/1 11/2/1
f 16/2/1 12/2/1 15/2/1
f 19/1/1 18/1/1 17/1/1
f 20/1/1 18/1/1 19/1/1
f 25/2/1 22/2/1 21/2/1
f 26/2/1 22/2/1 25/2/1
f 27/2/1 24/2/1 23/2/1
f 28/2/1 24/2/1 27/2/1
f 33/2/1 30/2/1 29/2/1
f 34/2/1 30/2/1 33/2/1
f 35/2/1 32/2/1 31/2/1
f 36/2/1 32/2/1 35/2/1
f 37/2/2 38/2/2 41/2/2
f 41/2/2 38/2/2 42/2/2
f 39/2/2 40/2/2 43/2/2
f 43/2/2 40/2/2 44/2/2
f 45/2/2 46/2/2 49/2/2
f 49/2/2 46/2/2 50/2/2
f 47/2/2 48/2/2 51/2/2
f 51/2/2 48/2/2 52/2/2
f 53/1/2 54/1/2 55/1/2
f 55/1/2 54/1/2 56/1/2
f 57/2/2 58/2/2 61/2/2
f 61/2/2 58/2/2 62/2/2
f 59/2/2 60/2/2 63/2/2
f 63/2/2 60/2/2 64/2/2
f 65/1/2 66/1/2 67/1/2
f 67/1/2 66/1/2 68/1/2
f 69/1/2 70/1/2 71/1/2
f 71/1/2 70/1/2 72/1/2
f 76/2/3 74/2/3 73/2/3
f 77/2/3 74/2/3 76/2/3
f 79/4/3 77/4/3 76/4/3
f 80/4/3 77/4/3 79/4/3
f 81/4/3 79/4/3 76/4/3
f 81/3/3 80/3/3 79/3/3
f 82/3/3 80/3/3 81/3/3
f 83/3/3 80/3/3 82/3/3
f 84/3/3 80/3/3 83/3/3
f 85/4/3 82/4/3 81/4/3
f 85/3/3 83/3/3 82/3/3
f 86/4/3 84/4/3 83/4/3
f 86/3/3 83/3/3 85/3/3
f 87/3/3 80/3/3 84/3/3
f 87/4/3 84/4/3 86/4/3
f 88/4/3 77/4/3 80/4/3
f 88/3/3 80/3/3 87/3/3
f 89/3/3 87/3/3 86/3/3
f 89/4/3 86/4/3 85/4/3
f 90/4/3 88/4/3 87/4/3
f 90/3/3 87/3/3 89/3/3
f 91/2/3 76/2/3 75/2/3
f 92/4/3 81/4/3 76/4/3
f 92/2/3 76/2/3 91/2/3
f 92/4/3 89/4/3 85/4/3
f 92/4/3 90/4/3 89/4/3
f 92/4/3 85/4/3 81/4/3
f 93/4/3 88/4/3 90/4/3
f 93/4/3 90/4/3 92/4/3
f 93/2/3 78/2/3 77/2/3
f 93/4/3 77/4/3 88/4/3
f 94/2/3 78/2/3 93/2/3
f 95/2/3 93/2/3 92/2/3
f 96/2/3 93/2/3 95/2/3
f 100/1/3 98/1/3 97/1/3
f 101/1/3 98/1/3 100/1/3
f 102/1/3 98/1/3 101/1/3
f 103/1/3 98/1/3 102/1/3
f 105/1/3 100/1/3 99/1/3
f 105/1/3 101/1/3 100/1/3
f 106/1/3 101/1/3 105/1/3
f 107/1/3 104/1/3 103/1/3
f 107/1/3 103/1/3 102/1/3
f 108/1/3 104/1/3 107/1/3
f 109/1/3 105/1/3 99/1/3
f 112/1/3 104/1/3 108/1/3
f 113/1/3 110/1/3 109/1/3
f 113/1/3 109/1/3 99/1/3
f 114/1/3 110/1/3 113/1/3
f 115/1/3 110/1/3 114/1/3
f 116/1/3 112/1/3 111/1/3
f 117/1/3 104/1/3 112/1/3
f 117/1/3 112/1/3 116/1/3
f 118/1/3 104/1/3 117/1/3
f 119/1/3 115/1/3 114/1/3
f 119/1/3 116/1/3 115/1/3
f 119/1/3 117/1/3 116/1/3
f 120/1/3 117/1/3 119/1/3
f 121/1/4 122/1/4 124/1/4
f 124/1/4 122/1/4 125/1/4
f 125/1/4 122/1/4 126/1/4
f 126/1/4 122/1/4 127/1/4
f 123/1/4 124/1/4 129/1/4
f 124/1/4 125/1/4 129/1/4
f 129/1/4 125/1/4 130/1/4
f 127/1/4 128/1/4 131/1/4
f 126/1/4 127/1/4 131/1/4
f 131/1/4 128/1/4 132/1/4
f 123/1/4 129/1/4 133/1/4
f 132/1/4 128/1/4 136/1/4
f 133/1/4 134/1/4 137/1/4
f 123/1/4 133/1/4 137/1/4
f 137/1/4 134/1/4 138/1/4
f 138/1/4 134/1/4 139/1/4
f 135/1/4 136/1/4 140/1/4
f 136/1/4 128/1/4 141/1/4
f 140/1/4 136/1/4 141/1/4
f 141/1/4 128/1/4 142/1/4
f 138/1/4 139/1/4 143/1/4
f 139/1/4 140/1/4 143/1/4
f 140/1/4 141/1/4 143/1/4
f 143/1/4 141/1/4 144/1/4
f 145/2/4 146/2/4 148/2/4
f 148/2/4 146/2/4 149/2/4
f 148/4/4 149/4/4 151/4/4
f 151/4/4 149/4/4 152/4/4
f 148/4/4 151/4/4 153/4/4
f 151/3/4 152/3/4 153/3/4
f 153/3/4 152/3/4 154/3/4
f 154/3/4 152/3/4 155/3/4
f 155/3/4 152/3/4 156/3/4
f 153/4/4 154/4/4 157/4/4
f 154/3/4 155/3/4 157/3/4
f 155/4/4 156/4/4 158/4/4
f 157/3/4 155/3/4 158/3/4
f 156/3/4 152/3/4 159/3/4
f 158/4/4 156/4/4 159/4/4
f 152/4/4 149/4/4 160/4/4
f 159/3/4 152/3/4 160/3/4
f 158/3/4 159/3/4 161/3/4
f 157/4/4 158/4/4 161/4/4
f 159/4/4 160/4/4 162/4/4
f 161/3/4 159/3/4 162/3/4
f 147/2/4 148/2/4 163/2/4
f 148/4/4 153/4/4 164/4/4
f 163/2/4 148/2/4 164/2/4
f 157/4/4 161/4/4 164/4/4
f 161/4/4 162/4/4 164/4/4
f 153/4/4 157/4/4 164/4/4
f 162/4/4 160/4/4 165/4/4
f 164/4/4 162/4/4 165/4/4
f 149/2/4 150/2/4 165/2/4
f 160/4/4 149/4/4 165/4/4
f 165/2/4 150/2/4 166/2/4
f 164/2/4 165/2/4 167/2/4
f 167/2/4 165/2/4 168/2/4
f 171/1/5 170/1/5 169/1/5
f 172/1/5 170/1/5 171/1/5
f 177/2/5 174/2/5 173/2/5
f 178/2/5 174/2/5 177/2/5
f 181/1/5 176/1/5 175/1/5
f 182/1/5 176/1/5 181/1/5
f 185/1/5 180/1/5 179/1/5
f 186/1/5 180/1/5 185/1/5
f 187/2/5 184/2/5 183/2/5
f 188/2/5 184/2/5 187/2/5
f 193/2/5 190/2/5 189/2/5
f 194/2/5 190/2/5 193/2/5
f 195/2/5 192/2/5 191/2/5
f 196/2/5 192/2/5 195/2/5
f 201/2/5 198/2/5 197/2/5
f 202/2/5 198/2/5 201/2/5
f 203/2/5 200/2/5 199/2/5
f 204/2/5 200/2/5 203/2/5
f 205/2/6 206/2/6 209/2/6
f 209/2/6 206/2/6 210/2/6
f 207/2/6 208/2/6 211/2/6
f 211/2/6 208/2/6 212/2/6
f 213/2/6 214/2/6 217/2/6
f 217/2/6 214/2/6 218/2/6
f 215/2/6 216/2/6 219/2/6
f 219/2/6 216/2/6 220/2/6
f 221/2/6 222/2/6 225/2/6
f 225/2/6 222/2/6 226/2/6
f 223/1/6 224/1/6 229/1/6
f 229/1/6 224/1/6 230/1/6
f 227/1/6 228/1/6 233/1/6
f 233/1/6 228/1/6 234/1/6
f 231/2/6 232/2/6 235/2/6
f 235/2/6 232/2/6 236/2/6
f 237/1/6 238/1/6 239/1/6
f 239/1/6 238/1/6 240/1/6
