# MagicaVoxel @ Ephtracy

# group
o 

# material
mtllib door.mtl
usemtl palette

# normals
vn -1 0 0
vn 1 0 0
vn 0 0 1
vn 0 0 -1
vn 0 -1 0
vn 0 1 0

# texcoords
vt 0.751953 0.5
vt 0.783203 0.5

# verts
v -1 0 0.1
v -1 0 -0.1
v -1 3.4 0.1
v -1 3.4 -0.1
v -0.9 3.4 0.1
v -0.9 3.4 -0.1
v -0.9 3.6 0.1
v -0.9 3.6 -0.1
v -0.8 3.6 0.1
v -0.8 3.6 -0.1
v -0.8 3.8 0.1
v -0.8 3.8 -0.1
v -0.7 3.8 0.1
v -0.7 3.8 -0.1
v -0.7 3.9 0.1
v -0.7 3.9 -0.1
v -0.6 3.9 0.1
v -0.6 3.9 -0.1
v -0.6 4 0.1
v -0.6 4 -0.1
v 0.6 3.9 0.1
v 0.6 3.9 -0.1
v 0.6 4 0.1
v 0.6 4 -0.1
v 0.7 3.8 0.1
v 0.7 3.8 -0.1
v 0.7 3.9 0.1
v 0.7 3.9 -0.1
v 0.8 3.6 0.1
v 0.8 3.6 -0.1
v 0.8 3.8 0.1
v 0.8 3.8 -0.1
v 0.9 3.4 0.1
v 0.9 3.4 -0.1
v 0.9 3.6 0.1
v 0.9 3.6 -0.1
v 1 0 0.1
v 1 0 -0.1
v 1 3.4 0.1
v 1 3.4 -0.1
v -1 0 0.1
v -1 3.4 0.1
v -0.9 3.4 0.1
v -0.9 3.6 0.1
v -0.8 0 0.1
v -0.8 3.6 0.1
v -0.8 3.8 0.1
v -0.7 0 0.1
v -0.7 3.8 0.1
v -0.7 3.9 0.1
v -0.6 3.9 0.1
v -0.6 4 0.1
v -0.5 0 0.1
v -0.5 4 0.1
v -0.4 0 0.1
v -0.4 4 0.1
v -0.2 0 0.1
v -0.2 4 0.1
v -0.1 0 0.1
v -0.1 4 0.1
v 0.1 0 0.1
v 0.1 4 0.1
v 0.2 0 0.1
v 0.2 4 0.1
v 0.4 0 0.1
v 0.4 4 0.1
v 0.5 0 0.1
v 0.5 4 0.1
v 0.6 3.9 0.1
v 0.6 4 0.1
v 0.7 0 0.1
v 0.7 3.8 0.1
v 0.7 3.9 0.1
v 0.8 0 0.1
v 0.8 3.6 0.1
v 0.8 3.8 0.1
v 0.9 3.4 0.1
v 0.9 3.6 0.1
v 1 0 0.1
v 1 3.4 0.1
v -1 0 -0.1
v -1 3.4 -0.1
v -0.9 3.4 -0.1
v -0.9 3.6 -0.1
v -0.8 0 -0.1
v -0.8 3.6 -0.1
v -0.8 3.8 -0.1
v -0.7 0 -0.1
v -0.7 3.8 -0.1
v -0.7 3.9 -0.1
v -0.6 3.9 -0.1
v -0.6 4 -0.1
v -0.5 0 -0.1
v -0.5 4 -0.1
v -0.4 0 -0.1
v -0.4 4 -0.1
v -0.2 0 -0.1
v -0.2 4 -0.1
v -0.1 0 -0.1
v -0.1 4 -0.1
v 0.1 0 -0.1
v 0.1 4 -0.1
v 0.2 0 -0.1
v 0.2 4 -0.1
v 0.4 0 -0.1
v 0.4 4 -0.1
v 0.5 0 -0.1
v 0.5 4 -0.1
v 0.6 3.9 -0.1
v 0.6 4 -0.1
v 0.7 0 -0.1
v 0.7 3.8 -0.1
v 0.7 3.9 -0.1
v 0.8 0 -0.1
v 0.8 3.6 -0.1
v 0.8 3.8 -0.1
v 0.9 3.4 -0.1
v 0.9 3.6 -0.1
v 1 0 -0.1
v 1 3.4 -0.1
v -1 0 0.1
v -0.8 0 0.1
v -0.7 0 0.1
v -0.5 0 0.1
v -0.4 0 0.1
v -0.2 0 0.1
v -0.1 0 0.1
v 0.1 0 0.1
v 0.2 0 0.1
v 0.4 0 0.1
v 0.5 0 0.1
v 0.7 0 0.1
v 0.8 0 0.1
v 1 0 0.1
v -1 0 -0.1
v -0.8 0 -0.1
v -0.7 0 -0.1
v -0.5 0 -0.1
v -0.4 0 -0.1
v -0.2 0 -0.1
v -0.1 0 -0.1
v 0.1 0 -0.1
v 0.2 0 -0.1
v 0.4 0 -0.1
v 0.5 0 -0.1
v 0.7 0 -0.1
v 0.8 0 -0.1
v 1 0 -0.1
v -1 3.4 0.1
v -0.9 3.4 0.1
v 0.9 3.4 0.1
v 1 3.4 0.1
v -1 3.4 -0.1
v -0.9 3.4 -0.1
v 0.9 3.4 -0.1
v 1 3.4 -0.1
v -0.9 3.6 0.1
v -0.8 3.6 0.1
v 0.8 3.6 0.1
v 0.9 3.6 0.1
v -0.9 3.6 -0.1
v -0.8 3.6 -0.1
v 0.8 3.6 -0.1
v 0.9 3.6 -0.1
v -0.8 3.8 0.1
v -0.7 3.8 0.1
v 0.7 3.8 0.1
v 0.8 3.8 0.1
v -0.8 3.8 -0.1
v -0.7 3.8 -0.1
v 0.7 3.8 -0.1
v 0.8 3.8 -0.1
v -0.7 3.9 0.1
v -0.6 3.9 0.1
v 0.6 3.9 0.1
v 0.7 3.9 0.1
v -0.7 3.9 -0.1
v -0.6 3.9 -0.1
v 0.6 3.9 -0.1
v 0.7 3.9 -0.1
v -0.6 4 0.1
v -0.5 4 0.1
v -0.4 4 0.1
v -0.2 4 0.1
v -0.1 4 0.1
v 0.1 4 0.1
v 0.2 4 0.1
v 0.4 4 0.1
v 0.5 4 0.1
v 0.6 4 0.1
v -0.6 4 -0.1
v -0.5 4 -0.1
v -0.4 4 -0.1
v -0.2 4 -0.1
v -0.1 4 -0.1
v 0.1 4 -0.1
v 0.2 4 -0.1
v 0.4 4 -0.1
v 0.5 4 -0.1
v 0.6 4 -0.1

# faces
f 3/2/1 2/2/1 1/2/1
f 4/2/1 2/2/1 3/2/1
f 7/2/1 6/2/1 5/2/1
f 8/2/1 6/2/1 7/2/1
f 11/1/1 10/1/1 9/1/1
f 12/1/1 10/1/1 11/1/1
f 15/2/1 14/2/1 13/2/1
f 16/2/1 14/2/1 15/2/1
f 19/2/1 18/2/1 17/2/1
f 20/2/1 18/2/1 19/2/1
f 21/2/2 22/2/2 23/2/2
f 23/2/2 22/2/2 24/2/2
f 25/2/2 26/2/2 27/2/2
f 27/2/2 26/2/2 28/2/2
f 29/1/2 30/1/2 31/1/2
f 31/1/2 30/1/2 32/1/2
f 33/2/2 34/2/2 35/2/2
f 35/2/2 34/2/2 36/2/2
f 37/2/2 38/2/2 39/2/2
f 39/2/2 38/2/2 40/2/2
f 43/2/3 42/2/3 41/2/3
f 45/2/3 43/2/3 41/2/3
f 45/2/3 44/2/3 43/2/3
f 46/2/3 44/2/3 45/2/3
f 48/1/3 46/1/3 45/1/3
f 48/1/3 47/1/3 46/1/3
f 49/1/3 47/1/3 48/1/3
f 51/2/3 49/2/3 48/2/3
f 51/2/3 50/2/3 49/2/3
f 53/2/3 51/2/3 48/2/3
f 53/2/3 52/2/3 51/2/3
f 54/2/3 52/2/3 53/2/3
f 55/1/3 54/1/3 53/1/3
f 56/1/3 54/1/3 55/1/3
f 57/2/3 56/2/3 55/2/3
f 58/2/3 56/2/3 57/2/3
f 59/1/3 58/1/3 57/1/3
f 60/1/3 58/1/3 59/1/3
f 61/2/3 60/2/3 59/2/3
f 62/2/3 60/2/3 61/2/3
f 63/1/3 62/1/3 61/1/3
f 64/1/3 62/1/3 63/1/3
f 65/2/3 64/2/3 63/2/3
f 66/2/3 64/2/3 65/2/3
f 67/1/3 66/1/3 65/1/3
f 68/1/3 66/1/3 67/1/3
f 69/2/3 68/2/3 67/2/3
f 70/2/3 68/2/3 69/2/3
f 71/2/3 69/2/3 67/2/3
f 72/2/3 69/2/3 71/2/3
f 73/2/3 69/2/3 72/2/3
f 74/1/3 72/1/3 71/1/3
f 75/1/3 72/1/3 74/1/3
f 76/1/3 72/1/3 75/1/3
f 77/2/3 75/2/3 74/2/3
f 78/2/3 75/2/3 77/2/3
f 79/2/3 77/2/3 74/2/3
f 80/2/3 77/2/3 79/2/3
f 81/2/4 82/2/4 83/2/4
f 81/2/4 83/2/4 85/2/4
f 83/2/4 84/2/4 85/2/4
f 85/2/4 84/2/4 86/2/4
f 85/1/4 86/1/4 88/1/4
f 86/1/4 87/1/4 88/1/4
f 88/1/4 87/1/4 89/1/4
f 88/2/4 89/2/4 91/2/4
f 89/2/4 90/2/4 91/2/4
f 88/2/4 91/2/4 93/2/4
f 91/2/4 92/2/4 93/2/4
f 93/2/4 92/2/4 94/2/4
f 93/1/4 94/1/4 95/1/4
f 95/1/4 94/1/4 96/1/4
f 95/2/4 96/2/4 97/2/4
f 97/2/4 96/2/4 98/2/4
f 97/1/4 98/1/4 99/1/4
f 99/1/4 98/1/4 100/1/4
f 99/2/4 100/2/4 101/2/4
f 101/2/4 100/2/4 102/2/4
f 101/1/4 102/1/4 103/1/4
f 103/1/4 102/1/4 104/1/4
f 103/2/4 104/2/4 105/2/4
f 105/2/4 104/2/4 106/2/4
f 105/1/4 106/1/4 107/1/4
f 107/1/4 106/1/4 108/1/4
f 107/2/4 108/2/4 109/2/4
f 109/2/4 108/2/4 110/2/4
f 107/2/4 109/2/4 111/2/4
f 111/2/4 109/2/4 112/2/4
f 112/2/4 109/2/4 113/2/4
f 111/1/4 112/1/4 114/1/4
f 114/1/4 112/1/4 115/1/4
f 115/1/4 112/1/4 116/1/4
f 114/2/4 115/2/4 117/2/4
f 117/2/4 115/2/4 118/2/4
f 114/2/4 117/2/4 119/2/4
f 119/2/4 117/2/4 120/2/4
f 135/2/5 122/2/5 121/2/5
f 136/1/5 123/1/5 122/1/5
f 136/2/5 122/2/5 135/2/5
f 137/2/5 124/2/5 123/2/5
f 137/1/5 123/1/5 136/1/5
f 138/1/5 125/1/5 124/1/5
f 138/2/5 124/2/5 137/2/5
f 139/2/5 126/2/5 125/2/5
f 139/1/5 125/1/5 138/1/5
f 140/1/5 127/1/5 126/1/5
f 140/2/5 126/2/5 139/2/5
f 141/2/5 128/2/5 127/2/5
f 141/1/5 127/1/5 140/1/5
f 142/1/5 129/1/5 128/1/5
f 142/2/5 128/2/5 141/2/5
f 143/2/5 130/2/5 129/2/5
f 143/1/5 129/1/5 142/1/5
f 144/1/5 131/1/5 130/1/5
f 144/2/5 130/2/5 143/2/5
f 145/2/5 132/2/5 131/2/5
f 145/1/5 131/1/5 144/1/5
f 146/1/5 133/1/5 132/1/5
f 146/2/5 132/2/5 145/2/5
f 147/2/5 134/2/5 133/2/5
f 147/1/5 133/1/5 146/1/5
f 148/2/5 134/2/5 147/2/5
f 149/2/6 150/2/6 153/2/6
f 153/2/6 150/2/6 154/2/6
f 151/2/6 152/2/6 155/2/6
f 155/2/6 152/2/6 156/2/6
f 157/2/6 158/2/6 161/2/6
f 161/2/6 158/2/6 162/2/6
f 159/2/6 160/2/6 163/2/6
f 163/2/6 160/2/6 164/2/6
f 165/1/6 166/1/6 169/1/6
f 169/1/6 166/1/6 170/1/6
f 167/1/6 168/1/6 171/1/6
f 171/1/6 168/1/6 172/1/6
f 173/2/6 174/2/6 177/2/6
f 177/2/6 174/2/6 178/2/6
f 175/2/6 176/2/6 179/2/6
f 179/2/6 176/2/6 180/2/6
f 181/2/6 182/2/6 191/2/6
f 182/1/6 183/1/6 192/1/6
f 191/2/6 182/2/6 192/2/6
f 183/2/6 184/2/6 193/2/6
f 192/1/6 183/1/6 193/1/6
f 184/1/6 185/1/6 194/1/6
f 193/2/6 184/2/6 194/2/6
f 185/2/6 186/2/6 195/2/6
f 194/1/6 185/1/6 195/1/6
f 186/1/6 187/1/6 196/1/6
f 195/2/6 186/2/6 196/2/6
f 187/2/6 188/2/6 197/2/6
f 196/1/6 187/1/6 197/1/6
f 188/1/6 189/1/6 198/1/6
f 197/2/6 188/2/6 198/2/6
f 189/2/6 190/2/6 199/2/6
f 198/1/6 189/1/6 199/1/6
f 199/2/6 190/2/6 200/2/6
